<svg width="70" height="71" viewBox="0 0 70 71" fill="none" xmlns="http://www.w3.org/2000/svg">
<path d="M10.5492 45.3548C10.0392 45.3548 9.52919 45.1642 9.12655 44.7559C8.34812 43.9664 8.34812 42.6598 9.12655 41.8703L41.2033 9.33978C41.9818 8.55033 43.2702 8.55033 44.0486 9.33978C44.8271 10.1292 44.8271 11.4359 44.0486 12.2253L11.9719 44.7831C11.5961 45.1642 11.0592 45.3548 10.5492 45.3548Z" fill="#0715C9"/>
<path d="M29.7951 51.8881C29.285 51.8881 28.775 51.6976 28.3724 51.2892C27.594 50.4998 27.594 49.1931 28.3724 48.4037L31.5935 45.137C32.3719 44.3476 33.6604 44.3476 34.4388 45.137C35.2172 45.9265 35.2172 47.2331 34.4388 48.0226L31.2177 51.2892C30.8419 51.6703 30.3319 51.8881 29.7951 51.8881Z" fill="#0715C9"/>
<path d="M37.0158 44.5653C36.5057 44.5653 35.9957 44.3748 35.5931 43.9664C34.8147 43.177 34.8147 41.8703 35.5931 41.0809L42.0085 34.5747C42.7869 33.7853 44.0753 33.7853 44.8538 34.5747C45.6322 35.3642 45.6322 36.6709 44.8538 37.4603L38.4384 43.9664C38.0626 44.3475 37.5258 44.5653 37.0158 44.5653Z" fill="#0715C9"/>
<path d="M29.7952 62.0147C27.1646 62.0147 24.534 60.3814 21.3398 57.142L8.16012 43.7759C1.74476 37.2697 1.77161 33.0775 8.24065 26.517L26.0641 8.44141C32.5331 1.88085 36.6669 1.85363 43.0822 8.35974L56.2619 21.7259C62.6772 28.232 62.6504 32.4242 56.1814 38.9847L38.3579 57.0603C35.11 60.3542 32.4526 62.0147 29.7952 62.0147ZM34.6268 7.5703C33.231 7.5703 31.4594 8.74085 28.9094 11.327L11.086 29.4025C8.53592 31.9886 7.38169 33.7853 7.38169 35.1736C7.38169 36.5892 8.45539 38.3042 11.0054 40.8903L24.1851 54.2564C26.7351 56.8425 28.3994 57.9314 29.7952 57.9314C29.7952 57.9314 29.7952 57.9314 29.822 57.9314C31.2178 57.9314 32.9626 56.7609 35.5126 54.1747L53.3361 36.0992C55.8861 33.5131 57.0403 31.7164 57.0403 30.3281C57.0403 28.9125 55.9666 27.1975 53.4166 24.6114L40.2369 11.2453C37.7137 8.65918 36.0226 7.5703 34.6268 7.5703Z" fill="#0715C9"/>
<path d="M59.0534 62.0148H5.36841C4.26787 62.0148 3.35522 61.0892 3.35522 59.9731C3.35522 58.857 4.26787 57.9315 5.36841 57.9315H59.0534C60.154 57.9315 61.0666 58.857 61.0666 59.9731C61.0666 61.0892 60.154 62.0148 59.0534 62.0148Z" fill="#0715C9"/>
</svg>
