<svg width="70" height="71" viewBox="0 0 70 71" fill="none" xmlns="http://www.w3.org/2000/svg">
<path d="M39.5792 65.3592C38.9084 65.3592 38.2376 65.2426 37.5959 65.0092C35.4084 64.1926 34.0084 62.1509 34.0084 59.8176V41.0051H27.1834C24.9667 41.0051 23.0417 39.7509 22.1375 37.7384C21.2334 35.7259 21.5834 33.4509 23.0417 31.7884L45.1209 6.70507C46.6667 4.95507 49.0584 4.34257 51.2459 5.1884C53.4334 6.00507 54.8333 8.04674 54.8333 10.3801V29.1926H61.6584C63.8751 29.1926 65.8 30.4467 66.7042 32.4592C67.6084 34.4717 67.2584 36.7467 65.8 38.4092L43.7209 63.4926C42.6417 64.7176 41.1251 65.3592 39.5792 65.3592ZM49.2334 9.18424C48.9709 9.18424 48.65 9.27174 48.3875 9.59257L26.3084 34.7051C25.8417 35.2301 26.0168 35.7551 26.1043 35.9592C26.1918 36.1634 26.4834 36.6592 27.1834 36.6592H36.1959C37.3917 36.6592 38.3834 37.6509 38.3834 38.8467V59.8467C38.3834 60.5759 38.9084 60.8676 39.1418 60.9551C39.3751 61.0426 39.9583 61.1884 40.425 60.6342L62.5042 35.5217C62.9709 34.9967 62.7959 34.4717 62.7084 34.2676C62.6209 34.0634 62.3292 33.5676 61.6292 33.5676H52.6167C51.4209 33.5676 50.4292 32.5759 50.4292 31.3801V10.3801C50.4292 9.6509 49.9042 9.35924 49.6709 9.27174C49.5834 9.2134 49.4084 9.18424 49.2334 9.18424Z" fill="#0715C9"/>
<path d="M24.7917 13.9384H4.375C3.17917 13.9384 2.1875 12.9467 2.1875 11.7509C2.1875 10.5551 3.17917 9.5634 4.375 9.5634H24.7917C25.9875 9.5634 26.9792 10.5551 26.9792 11.7509C26.9792 12.9467 25.9875 13.9384 24.7917 13.9384Z" fill="#0715C9"/>
<path d="M21.875 60.6051H4.375C3.17917 60.6051 2.1875 59.6134 2.1875 58.4176C2.1875 57.2217 3.17917 56.2301 4.375 56.2301H21.875C23.0708 56.2301 24.0625 57.2217 24.0625 58.4176C24.0625 59.6134 23.0708 60.6051 21.875 60.6051Z" fill="#0715C9"/>
<path d="M13.125 37.2717H4.375C3.17917 37.2717 2.1875 36.2801 2.1875 35.0842C2.1875 33.8884 3.17917 32.8967 4.375 32.8967H13.125C14.3208 32.8967 15.3125 33.8884 15.3125 35.0842C15.3125 36.2801 14.3208 37.2717 13.125 37.2717Z" fill="#0715C9"/>
</svg>
