<svg width="70" height="71" viewBox="0 0 70 71" fill="none" xmlns="http://www.w3.org/2000/svg">
<path d="M50.6916 60.6051H31.8208C30.625 60.6051 29.6333 59.6134 29.6333 58.4176C29.6333 57.2217 30.625 56.2301 31.8208 56.2301H50.6916C59.6166 56.2301 61.7166 54.7717 61.95 46.8384C58.1 45.8467 55.2416 42.3467 55.2416 38.2051C55.2416 34.0342 58.1 30.5051 61.9791 29.5134V28.7551C61.9791 19.1592 60.2875 17.4676 50.6916 17.4676H34.2708V35.0842C34.2708 36.2801 33.2791 37.2717 32.0833 37.2717C30.8875 37.2717 29.8958 36.2801 29.8958 35.0842V15.2801C29.8958 14.0842 30.8875 13.0926 32.0833 13.0926H50.6916C62.7083 13.0926 66.3541 16.7384 66.3541 28.7551V31.4384C66.3541 32.6342 65.3625 33.6259 64.1666 33.6259C61.6583 33.6259 59.6166 35.6676 59.6166 38.2051C59.6166 40.7134 61.6583 42.7551 64.1666 42.7551C65.3625 42.7551 66.3541 43.7467 66.3541 44.9426C66.3541 56.9592 62.7083 60.6051 50.6916 60.6051Z" fill="#0715C9"/>
<path d="M32.0834 60.6051H24.0042C18.1125 60.6051 15.0792 56.1717 12.3084 49.5217L11.7542 48.1801C11.5501 47.6551 11.5501 47.0426 11.7834 46.5176C12.0167 45.9926 12.4542 45.5551 12.9792 45.3509C14.1459 44.8842 15.0501 43.9801 15.5459 42.8426C16.0417 41.6759 16.0417 40.3926 15.5459 39.2259C14.5834 36.7759 11.8126 35.6384 9.36255 36.6009C8.80838 36.8342 8.22505 36.8051 7.67088 36.5717C7.14588 36.3384 6.70838 35.9009 6.50422 35.3759L6.00838 34.1217C1.34172 22.7759 3.38338 17.9051 14.7292 13.2092L22.4292 10.0592C23.5376 9.59257 24.8209 10.1467 25.2875 11.2551L34.125 32.6634C34.2417 32.9259 34.3 33.2176 34.3 33.5092V40.9176C34.3 42.1134 33.3084 43.1051 32.1125 43.1051C30.9167 43.1051 29.925 42.1134 29.925 40.9176V33.9176L22.0501 14.9301L16.3917 17.2634C7.40838 20.9676 6.32922 23.2426 9.85838 31.9926C13.9126 31.4092 17.9959 33.5967 19.6 37.5342C20.5334 39.7801 20.5334 42.2592 19.5709 44.5051C18.9292 46.0509 17.8792 47.3634 16.5376 48.3259C19.3376 54.9176 21.3792 56.2301 23.9751 56.2301H29.8667V49.6676C29.8667 48.4717 30.8584 47.4801 32.0542 47.4801C33.25 47.4801 34.2417 48.4717 34.2417 49.6676V58.4176C34.2709 59.6134 33.2792 60.6051 32.0834 60.6051Z" fill="#0715C9"/>
<path d="M23.8291 60.6051H23.3333C22.1374 60.6051 21.1458 59.6134 21.1458 58.4176C21.1458 57.2217 22.1374 56.2301 23.3333 56.2301H23.8291C25.0249 56.2301 26.0166 57.2217 26.0166 58.4176C26.0166 59.6134 25.0249 60.6051 23.8291 60.6051Z" fill="#0715C9"/>
</svg>
