<svg width="70" height="71" viewBox="0 0 70 71" fill="none" xmlns="http://www.w3.org/2000/svg">
<path d="M44.4501 66.4384H25.5501C20.0376 66.4384 16.0126 64.1342 14.4667 60.1676C12.8626 56.0259 14.3501 50.8926 18.2001 47.4217L31.7334 35.0842L18.2001 22.7467C14.3501 19.2759 12.8626 14.1426 14.4667 10.0009C16.0126 6.00506 20.0376 3.73006 25.5501 3.73006H44.4501C49.9626 3.73006 53.9876 6.03422 55.5334 10.0009C57.1376 14.1426 55.6501 19.2759 51.8001 22.7467L38.2667 35.0842L51.8292 47.4217C55.6501 50.8926 57.1667 56.0259 55.5625 60.1676C53.9875 64.1342 49.9626 66.4384 44.4501 66.4384ZM35.0001 38.0301L21.1459 50.6301C18.6959 52.8759 17.6167 56.1426 18.5501 58.5634C19.4251 60.8092 21.9042 62.0634 25.5501 62.0634H44.4501C48.0959 62.0634 50.5751 60.8384 51.4501 58.5634C52.3834 56.1426 51.3334 52.8759 48.8542 50.6301L35.0001 38.0301ZM25.5501 8.10506C21.9042 8.10506 19.4251 9.33006 18.5501 11.6051C17.6167 14.0259 18.6667 17.2926 21.1459 19.5384L35.0001 32.1384L48.8542 19.5384C51.3042 17.2926 52.3834 14.0259 51.4501 11.6051C50.5751 9.35922 48.0959 8.10506 44.4501 8.10506H25.5501Z" fill="#0715C9"/>
</svg>
