<svg width="54" height="54" viewBox="0 0 54 54" fill="none" xmlns="http://www.w3.org/2000/svg">
<g clip-path="url(#clip0_1747_7180)">
<path d="M45.1072 35.5222C44.2773 35.0157 43.1944 35.278 42.6884 36.1075C41.0764 38.7487 38.8064 40.9583 36.1237 42.4974C33.3606 44.0826 30.2055 44.9205 26.9995 44.9205C16.8726 44.9205 8.63379 36.6816 8.63379 26.5547C8.63379 16.4278 16.8726 8.18896 26.9995 8.18896C30.2055 8.18896 33.3606 9.02682 36.1237 10.6121C38.8064 12.1511 41.0764 14.3606 42.6884 17.0019C43.1947 17.8313 44.2775 18.0937 45.1072 17.5873C45.9368 17.081 46.1989 15.998 45.6925 15.1684C43.773 12.0233 41.0698 9.39202 37.8751 7.55928C34.5798 5.66867 30.819 4.66943 26.9995 4.66943C14.932 4.66943 5.11426 14.4872 5.11426 26.5547C5.11426 38.6222 14.932 48.44 26.9995 48.44C30.819 48.44 34.5798 47.4407 37.8751 45.5501C41.0697 43.7173 43.773 41.0861 45.6925 37.941C46.1989 37.1114 45.9367 36.0286 45.1072 35.5222Z" fill="#0715C9"/>
<path d="M51.7072 24.8747H48.8208C48.7024 23.3198 48.4202 21.7862 47.9764 20.2975C47.6988 19.366 46.7187 18.8363 45.7873 19.1138C44.856 19.3915 44.3261 20.3716 44.6037 21.3029C44.9503 22.4655 45.1797 23.6613 45.2897 24.8746H41.4951C40.5232 24.8746 39.7354 25.6625 39.7354 26.6344C39.7354 27.6063 40.5232 28.3941 41.4951 28.3941H45.2739C45.1585 29.5527 44.935 30.6947 44.6037 31.8062C44.326 32.7377 44.856 33.7177 45.7873 33.9954C45.9551 34.0454 46.1243 34.0692 46.2908 34.0692C47.0488 34.0692 47.7488 33.5753 47.9764 32.8118C48.4051 31.3739 48.6827 29.8944 48.8079 28.3941H51.7072C52.6792 28.3941 53.467 27.6063 53.467 26.6344C53.467 25.6625 52.6791 24.8747 51.7072 24.8747Z" fill="#0715C9"/>
<path d="M20.2663 37.2071C21.2382 37.2071 22.026 36.4193 22.026 35.4473V17.9591C22.026 16.9872 21.2382 16.1993 20.2663 16.1993H16.5283C15.5564 16.1993 14.7686 16.9872 14.7686 17.9591C14.7686 18.931 15.5564 19.7189 16.5283 19.7189H18.5065V35.4472C18.5065 36.4192 19.2944 37.2071 20.2663 37.2071Z" fill="#0715C9"/>
<path d="M24.8115 30.3902C24.8115 34.1491 27.8696 37.2071 31.6284 37.2071C35.3873 37.2071 38.4454 34.1491 38.4454 30.3902C38.4454 28.2335 37.4374 26.3088 35.8691 25.0587C36.6226 24.1242 37.075 22.9373 37.075 21.6461C37.075 18.6428 34.6316 16.1995 31.6283 16.1995C28.625 16.1995 26.1817 18.6428 26.1817 21.6461C26.1817 22.9373 26.6341 24.1243 27.3877 25.0588C25.8195 26.3088 24.8115 28.2335 24.8115 30.3902ZM31.6284 33.6876C29.8103 33.6876 28.3311 32.2084 28.3311 30.3902C28.3311 28.5721 29.8102 27.0928 31.6284 27.0928C33.4467 27.0928 34.9258 28.5721 34.9258 30.3902C34.9258 32.2084 33.4466 33.6876 31.6284 33.6876ZM29.7013 21.6461C29.7013 20.5835 30.5659 19.719 31.6284 19.719C32.691 19.719 33.5556 20.5836 33.5556 21.6461C33.5556 22.7087 32.691 23.5733 31.6284 23.5733C30.5659 23.5733 29.7013 22.7087 29.7013 21.6461Z" fill="#0715C9"/>
</g>
<defs>
<clipPath id="clip0_1747_7180">
<rect width="53" height="53" fill="white" transform="translate(0.5 0.0546875)"/>
</clipPath>
</defs>
</svg>
