<svg width="86" height="84" viewBox="0 0 86 84" fill="none" xmlns="http://www.w3.org/2000/svg">
<g clip-path="url(#clip0_2658_7545)">
<path d="M8.76797 76.2789L43.0336 62.5159C43.9799 62.143 44.2953 61.0245 43.7309 60.0842C42.1371 57.458 38.7836 52.3516 34.5336 48.2016C30.4164 44.1813 25.4193 41.1012 22.8129 39.626C21.8666 39.0911 20.7377 39.4153 20.3559 40.3231L6.24453 73.8149C5.63027 75.2739 7.29043 76.8788 8.76797 76.2789Z" fill="#FCB424"/>
<path d="M43.8969 61.5266C42.8842 62.5155 36.8412 58.7383 30.5326 52.5782C24.224 46.418 20.3559 40.501 21.352 39.5122C22.3647 38.5233 28.4408 42.268 34.766 48.4444C41.0912 54.6207 44.893 60.554 43.8969 61.5266Z" fill="#D67909"/>
<path d="M23.0117 70.5559L15.0098 73.7818L8.81738 67.7189L12.1045 59.9053L23.0117 70.5559Z" fill="#ED3F03"/>
<path d="M37.5215 64.7365L29.5195 67.9463L14.7773 53.551L18.0645 45.7373L37.5215 64.7365Z" fill="#ED3F03"/>
<path d="M18.5625 21.3717C19.9195 21.3717 21.0195 20.2975 21.0195 18.9725C21.0195 17.6474 19.9195 16.5732 18.5625 16.5732C17.2055 16.5732 16.1055 17.6474 16.1055 18.9725C16.1055 20.2975 17.2055 21.3717 18.5625 21.3717Z" fill="#FCB424"/>
<path d="M18.5625 6.37695C19.9238 6.37695 21.0195 7.44687 21.0195 8.77617V13.1855C21.0195 14.5148 19.9238 15.5848 18.5625 15.5848C17.2178 15.5848 16.1055 14.5148 16.1055 13.1855V8.77617C16.1055 7.44687 17.2178 6.37695 18.5625 6.37695Z" fill="#FCB424"/>
<path d="M8.12012 16.5732H12.6357C13.9971 16.5732 15.0928 17.6432 15.0928 18.9725C15.0928 20.3018 13.9971 21.3717 12.6357 21.3717H8.12012C6.75879 21.3717 5.66309 20.3018 5.66309 18.9725C5.66309 17.6432 6.75879 16.5732 8.12012 16.5732Z" fill="#FCB424"/>
<path d="M18.5625 22.3613C19.9238 22.3613 21.0195 23.4312 21.0195 24.7605V29.1699C21.0195 30.4992 19.9238 31.5691 18.5625 31.5691C17.2012 31.5691 16.1055 30.4992 16.1055 29.1699V24.7605C16.1055 23.4312 17.2178 22.3613 18.5625 22.3613Z" fill="#FCB424"/>
<path d="M24.4893 16.5732H29.0049C30.3662 16.5732 31.4619 17.6432 31.4619 18.9725C31.4619 20.3018 30.3662 21.3717 29.0049 21.3717H24.4893C23.1279 21.3717 22.0322 20.3018 22.0322 18.9725C22.0322 17.6432 23.1279 16.5732 24.4893 16.5732Z" fill="#FCB424"/>
<path d="M71.0566 65.2555C72.4136 65.2555 73.5137 64.1813 73.5137 62.8562C73.5137 61.5312 72.4136 60.457 71.0566 60.457C69.6997 60.457 68.5996 61.5312 68.5996 62.8562C68.5996 64.1813 69.6997 65.2555 71.0566 65.2555Z" fill="#00C853"/>
<path d="M71.0566 50.2598C72.418 50.2598 73.5137 51.3297 73.5137 52.659V57.0684C73.5137 58.3977 72.418 59.4676 71.0566 59.4676C69.6953 59.4676 68.5996 58.3977 68.5996 57.0684V52.659C68.5996 51.3297 69.6953 50.2598 71.0566 50.2598Z" fill="#00C853"/>
<path d="M60.6143 60.457H65.1299C66.4912 60.457 67.5869 61.527 67.5869 62.8562C67.5869 64.1855 66.4912 65.2555 65.1299 65.2555H60.6143C59.2529 65.2555 58.1572 64.1855 58.1572 62.8562C58.1572 61.527 59.2529 60.457 60.6143 60.457Z" fill="#00C853"/>
<path d="M71.0566 66.2441C72.418 66.2441 73.5137 67.3141 73.5137 68.6434V73.0527C73.5137 74.382 72.418 75.452 71.0566 75.452C69.6953 75.452 68.5996 74.382 68.5996 73.0527V68.6434C68.5996 67.3141 69.6953 66.2441 71.0566 66.2441Z" fill="#00C853"/>
<path d="M76.9834 60.457H81.499C82.8604 60.457 83.9561 61.527 83.9561 62.8562C83.9561 64.1855 82.8604 65.2555 81.499 65.2555H76.9834C75.6221 65.2555 74.5264 64.1855 74.5264 62.8562C74.5264 61.527 75.6221 60.457 76.9834 60.457Z" fill="#00C853"/>
<path d="M67.5869 17.984C68.9439 17.984 70.0439 16.9098 70.0439 15.5848C70.0439 14.2597 68.9439 13.1855 67.5869 13.1855C66.2299 13.1855 65.1299 14.2597 65.1299 15.5848C65.1299 16.9098 66.2299 17.984 67.5869 17.984Z" fill="#07B7EE"/>
<path d="M67.5869 2.98926C68.9482 2.98926 70.0439 4.05918 70.0439 5.38848V9.79785C70.0439 11.1271 68.9482 12.1971 67.5869 12.1971C66.2256 12.1971 65.1299 11.1271 65.1299 9.79785V5.38848C65.1299 4.05918 66.2422 2.98926 67.5869 2.98926Z" fill="#07B7EE"/>
<path d="M54.6875 15.5848C54.6875 14.2555 55.7832 13.1855 57.1445 13.1855H61.6602C63.0215 13.1855 64.1172 14.2555 64.1172 15.5848C64.1172 16.9141 63.0215 17.984 61.6602 17.984H57.1445C55.7998 17.984 54.6875 16.9141 54.6875 15.5848Z" fill="#07B7EE"/>
<path d="M67.5869 28.1805C66.2256 28.1805 65.1299 27.1105 65.1299 25.7812V21.3719C65.1299 20.0426 66.2256 18.9727 67.5869 18.9727C68.9482 18.9727 70.0439 20.0426 70.0439 21.3719V25.7812C70.0605 27.1105 68.9482 28.1805 67.5869 28.1805Z" fill="#07B7EE"/>
<path d="M80.5029 15.5848C80.5029 16.9141 79.4072 17.984 78.0459 17.984H73.5303C72.1689 17.984 71.0732 16.9141 71.0732 15.5848C71.0732 14.2555 72.1689 13.1855 73.5303 13.1855H78.0459C79.3906 13.1855 80.5029 14.2555 80.5029 15.5848Z" fill="#07B7EE"/>
<path d="M28.341 49.2877C27.0793 48.8176 26.4318 47.4396 26.9133 46.1914C27.1457 45.6078 27.5774 45.1377 28.1584 44.8783C30.3 43.8894 32.9231 42.2683 33.2551 40.1447C33.5705 38.1832 31.8606 36.1082 31.1301 35.4435C30.3498 34.8113 26.0002 30.9693 27.0129 26.6896C27.6936 23.8365 30.4494 21.8101 35.2141 20.6916C38.3684 19.9459 39.6633 18.9732 39.8127 18.2924C40.0451 17.2873 38.5012 15.4068 37.3225 14.4666C36.2766 13.6236 36.1272 12.116 36.9904 11.0947C37.8371 10.0896 39.3645 9.92752 40.4104 10.7381C40.9416 11.1596 45.59 14.9853 44.594 19.3299C43.9299 22.183 41.174 24.1931 36.3596 25.3279C33.2385 26.0574 31.9436 27.0625 31.7775 27.7433C31.5285 28.7971 33.1223 30.8072 34.3176 31.7961L34.4006 31.8609C34.5832 32.023 38.8498 35.8974 38.0861 40.8256C37.5715 44.2137 34.9152 47.0181 30.2336 49.1904C29.6525 49.4984 28.9553 49.5146 28.341 49.2877Z" fill="#00C853"/>
<path d="M59.2361 82.8924C58.6551 83.1031 58.0242 83.1194 57.4265 82.9248C56.2312 82.5196 55.7664 81.3037 56.3806 80.2338C57.4431 78.3696 58.489 75.8082 57.4597 74.2844C56.4969 72.874 53.8904 72.566 52.9109 72.566C51.9148 72.6147 46.1541 72.7444 44.3113 69.4697C43.0828 67.2813 43.9959 64.3957 47.0174 60.9104C49.0095 58.6084 49.4246 57.2305 49.1424 56.728C48.7107 55.966 46.3367 55.6742 44.8592 55.7715C43.531 55.8688 42.4685 55.0096 42.5017 53.8748C42.5349 52.7401 43.6472 51.735 44.9754 51.6377C45.656 51.5891 51.616 51.2811 53.5252 54.5881C54.7703 56.7604 53.8406 59.6459 50.7859 63.1637C48.8103 65.4494 48.4119 66.8274 48.7107 67.3461C49.159 68.1567 51.6326 68.4809 53.1765 68.3998H53.2927C53.5418 68.3998 59.2361 68.335 61.6765 71.869C63.3533 74.3006 63.0213 77.6076 60.697 81.709C60.3484 82.2764 59.8338 82.6817 59.2361 82.8924Z" fill="#FCB424"/>
<path d="M45.8885 48.3469C44.577 48.2983 43.5643 47.2121 43.6141 45.9315C43.6307 45.3803 43.8631 44.8453 44.2449 44.4401C44.3777 44.2942 47.615 40.9385 53.6248 37.9881C57.1443 36.2698 60.8797 35.0377 64.7479 34.3244C69.7117 33.4328 74.7918 33.3518 79.7723 34.0813C81.0672 34.2596 81.9637 35.443 81.7811 36.7074C81.5984 37.9719 80.3865 38.8473 79.0916 38.669C70.7908 37.4856 63.0047 38.6203 55.949 42.0408C50.6365 44.6022 47.7645 47.5688 47.7313 47.585C47.2664 48.1199 46.5857 48.3793 45.8885 48.3469Z" fill="#9266CC"/>
<path d="M12.1877 52.578C11.9553 52.578 11.7229 52.5455 11.5071 52.4807C10.2454 52.1078 9.53149 50.8272 9.91333 49.5951C10.76 46.7096 11.3909 43.7592 11.8391 40.7764C12.7024 34.6811 11.8889 31.6334 10.8596 30.8067C10.0295 30.142 8.08716 30.5311 5.56372 31.8604C4.40161 32.4764 2.95728 32.0549 2.34302 30.9201C1.71216 29.7854 2.1438 28.375 3.30591 27.7752C7.80493 25.3922 11.3577 25.1977 13.8645 27.1916C16.7034 29.445 17.5833 34.1137 16.5374 41.4573C16.0725 44.6508 15.3752 47.8119 14.4622 50.9082C14.1633 51.8971 13.2336 52.578 12.1877 52.578Z" fill="#9266CC"/>
<path d="M51.6826 32.7521C53.3422 32.7521 54.6875 31.4385 54.6875 29.818C54.6875 28.1975 53.3422 26.8838 51.6826 26.8838C50.0231 26.8838 48.6777 28.1975 48.6777 29.818C48.6777 31.4385 50.0231 32.7521 51.6826 32.7521Z" fill="#FCB424"/>
<path d="M48.6777 5.92305C50.3373 5.92305 51.6826 4.60937 51.6826 2.98887C51.6826 1.36836 50.3373 0.0546875 48.6777 0.0546875C47.0182 0.0546875 45.6729 1.36836 45.6729 2.98887C45.6729 4.60937 47.0182 5.92305 48.6777 5.92305Z" fill="#ED3F03"/>
<path d="M35.7451 77.0887C37.6156 77.0887 39.1318 75.6081 39.1318 73.7816C39.1318 71.9552 37.6156 70.4746 35.7451 70.4746C33.8747 70.4746 32.3584 71.9552 32.3584 73.7816C32.3584 75.6081 33.8747 77.0887 35.7451 77.0887Z" fill="#9266CC"/>
<path d="M64.1338 49.4496C65.4358 49.4496 66.4912 48.419 66.4912 47.1477C66.4912 45.8763 65.4358 44.8457 64.1338 44.8457C62.8318 44.8457 61.7764 45.8763 61.7764 47.1477C61.7764 48.419 62.8318 49.4496 64.1338 49.4496Z" fill="#07B7EE"/>
<path d="M79.2412 8.43555C80.6624 8.43555 81.8145 7.31057 81.8145 5.92285C81.8145 4.53513 80.6624 3.41016 79.2412 3.41016C77.82 3.41016 76.668 4.53513 76.668 5.92285C76.668 7.31057 77.82 8.43555 79.2412 8.43555Z" fill="#9266CC"/>
</g>
<defs>
<clipPath id="clip0_2658_7545">
<rect width="85" height="83" fill="white" transform="translate(0.5 0.0546875)"/>
</clipPath>
</defs>
</svg>
