<svg width="71" height="71" viewBox="0 0 71 71" fill="none" xmlns="http://www.w3.org/2000/svg">
<path d="M50.249 60.5755H21.0823C8.68646 60.5755 4.63229 56.8713 4.34062 45.3213C4.34062 44.738 4.54479 44.1546 4.95313 43.7463C5.36146 43.338 5.91563 43.0755 6.52813 43.0755C10.9323 43.0755 14.5198 39.4588 14.5198 35.0546C14.5198 30.6505 10.9323 27.0338 6.52813 27.0338C5.94479 27.0338 5.39063 26.8005 4.95313 26.363C4.51563 25.9255 4.31146 25.3713 4.34062 24.788C4.63229 13.238 8.68646 9.53381 21.0823 9.53381H50.249C63.1115 9.53381 67.0198 13.4421 67.0198 26.3046V43.8046C67.0198 56.6671 63.1115 60.5755 50.249 60.5755ZM8.80312 47.2463C9.29896 54.6546 11.8073 56.2005 21.0823 56.2005H50.249C60.6906 56.2005 62.6448 54.2171 62.6448 43.8046V26.3046C62.6448 15.8921 60.6906 13.9088 50.249 13.9088H21.0823C11.8073 13.9088 9.29896 15.4838 8.80312 22.863C14.549 23.9713 18.8948 29.0171 18.8948 35.0546C18.8948 41.0921 14.549 46.138 8.80312 47.2463Z" fill="#292D32"/>
<path d="M26.916 24.1171C25.7202 24.1171 24.7285 23.1255 24.7285 21.9296V11.7213C24.7285 10.5255 25.7202 9.53381 26.916 9.53381C28.1118 9.53381 29.1035 10.5255 29.1035 11.7213V21.9296C29.1035 23.1255 28.1118 24.1171 26.916 24.1171Z" fill="#292D32"/>
<path d="M26.916 60.5755C25.7202 60.5755 24.7285 59.5839 24.7285 58.388V48.1797C24.7285 46.9839 25.7202 45.9922 26.916 45.9922C28.1118 45.9922 29.1035 46.9839 29.1035 48.1797V58.388C29.1035 59.5839 28.1118 60.5755 26.916 60.5755Z" fill="#292D32"/>
<path d="M38.6988 45.7005C37.9988 45.7005 37.2988 45.4671 36.7155 45.0588C35.6655 44.3005 35.1405 43.0171 35.3738 41.7338L35.9863 38.263L33.4488 35.7838C32.5155 34.8796 32.1946 33.538 32.5738 32.313C32.9821 31.088 34.0321 30.1838 35.3155 30.0088L38.8155 29.4838L40.3905 26.3046C40.9738 25.138 42.1405 24.4088 43.4238 24.4088C44.7363 24.4088 45.903 25.138 46.4571 26.3046L48.0321 29.4838L51.5321 30.0088C52.8155 30.1838 53.8655 31.088 54.2738 32.313C54.6821 33.538 54.3321 34.8796 53.3988 35.7838L50.8613 38.263L51.4738 41.7338C51.7071 43.0171 51.1821 44.3005 50.1321 45.0588C49.0821 45.8171 47.7113 45.9046 46.5738 45.3213L43.453 43.688L40.303 45.3213C39.8071 45.5838 39.253 45.7005 38.6988 45.7005ZM37.9113 34.0338L39.3988 35.4921C40.2155 36.2796 40.5655 37.388 40.3905 38.4963L40.0405 40.538L41.878 39.5755C42.8696 39.0505 44.0363 39.0505 45.028 39.5755L46.8655 40.538L46.5155 38.4963C46.3405 37.3588 46.6905 36.2505 47.5071 35.4921L48.9946 34.0338L46.953 33.7421C45.8446 33.5671 44.8821 32.8671 44.3863 31.8755L43.4821 30.0088L42.578 31.8755C42.0821 32.8671 41.1196 33.5671 40.0113 33.7421L37.9113 34.0338Z" fill="#292D32"/>
</svg>
