<svg width="71" height="71" viewBox="0 0 71 71" fill="none" xmlns="http://www.w3.org/2000/svg">
<path d="M49.0141 66.4088H21.6557C9.49323 66.4088 5.78906 62.7046 5.78906 50.5421V49.2005C5.78906 48.0046 6.78073 47.013 7.97656 47.013C10.5432 47.013 12.6432 44.913 12.6432 42.3463C12.6432 39.7796 10.5432 37.6796 7.97656 37.6796C6.78073 37.6796 5.78906 36.688 5.78906 35.4921V34.1505C5.78906 21.988 9.49323 18.2838 21.6557 18.2838H49.0141C61.1766 18.2838 64.8807 21.988 64.8807 34.1505V36.8921C64.8807 38.088 63.8891 39.0796 62.6932 39.0796C60.1266 39.0796 58.0266 41.1796 58.0266 43.7463C58.0266 46.313 60.1266 48.3838 62.6932 48.3838C63.8891 48.3838 64.8807 49.3755 64.8807 50.5713C64.8516 62.7046 61.1474 66.4088 49.0141 66.4088ZM10.1932 51.1255C10.2516 60.4005 12.0891 62.0338 21.6849 62.0338H49.0432C58.1432 62.0338 60.2432 60.5463 60.5057 52.4671C56.5974 51.4755 53.6807 47.9463 53.6807 43.7171C53.6807 39.488 56.5974 35.9296 60.5349 34.938V34.1213C60.5349 24.3505 58.8141 22.6296 49.0432 22.6296H21.6557C12.0891 22.6296 10.2516 24.2921 10.1641 33.538C14.1016 34.5296 17.0182 38.088 17.0182 42.3171C17.0182 46.5463 14.1016 50.1338 10.1932 51.1255Z" fill="#292D32"/>
<path d="M29.5 29.9505C28.3042 29.9505 27.3125 28.9588 27.3125 27.763V20.4713C27.3125 19.2755 28.3042 18.2838 29.5 18.2838C30.6958 18.2838 31.6875 19.2755 31.6875 20.4713V27.763C31.6875 28.9588 30.6958 29.9505 29.5 29.9505Z" fill="#292D32"/>
<path d="M29.5 49.4046C28.3042 49.4046 27.3125 48.413 27.3125 47.2171V37.5046C27.3125 36.3088 28.3042 35.3171 29.5 35.3171C30.6958 35.3171 31.6875 36.3088 31.6875 37.5046V47.2171C31.6875 48.413 30.6958 49.4046 29.5 49.4046Z" fill="#292D32"/>
<path d="M29.5 66.4089C28.3042 66.4089 27.3125 65.4172 27.3125 64.2214V56.9297C27.3125 55.7339 28.3042 54.7422 29.5 54.7422C30.6958 54.7422 31.6875 55.7339 31.6875 56.9297V64.2214C31.6875 65.4172 30.6958 66.4089 29.5 66.4089Z" fill="#292D32"/>
<path d="M47.964 22.6588H21.4515C20.5765 22.6588 19.7598 22.1338 19.439 21.3171C19.1181 20.5005 19.2931 19.538 19.9056 18.9255L28.4515 10.3796C36.3265 2.50464 41.139 2.50464 48.9848 10.3796L50.7348 12.1296C51.1432 12.538 51.3765 13.0921 51.3765 13.6755C51.3765 14.2588 51.1432 14.813 50.7348 15.2213C49.5682 16.388 49.2473 18.1088 49.9181 19.5963C50.239 20.2671 50.1807 21.0546 49.7723 21.6963C49.3932 22.2796 48.6931 22.6588 47.964 22.6588ZM26.7306 18.2838H45.1931C45.1348 16.738 45.514 15.1921 46.3015 13.8505L45.9223 13.4713C39.8265 7.37547 37.6681 7.37547 31.5723 13.4713L26.7306 18.2838Z" fill="#292D32"/>
</svg>
