<svg width="70" height="71" viewBox="0 0 70 71" fill="none" xmlns="http://www.w3.org/2000/svg">
<path d="M34.9992 66.409C34.2992 66.409 33.5993 66.3216 32.9284 66.1174C17.7909 61.9466 6.82422 47.8006 6.82422 32.459V19.6547C6.82422 16.3881 9.18674 12.8591 12.2201 11.6049L28.4659 4.95481C32.6951 3.23398 37.3325 3.23398 41.5325 4.95481L57.7784 11.6049C60.8117 12.8591 63.1742 16.3881 63.1742 19.6547V32.459C63.1742 47.7715 52.1784 61.9174 37.07 66.1174C36.3992 66.3216 35.6992 66.409 34.9992 66.409ZM34.9992 8.07566C33.3367 8.07566 31.7034 8.39655 30.1284 9.03821L13.8826 15.6881C12.4826 16.2715 11.1992 18.1673 11.1992 19.6839V32.4882C11.1992 45.8757 20.8242 58.2424 34.0951 61.9174C34.6784 62.0924 35.3201 62.0924 35.9034 61.9174C49.1742 58.2424 58.7992 45.8757 58.7992 32.4882V19.6839C58.7992 18.1673 57.5159 16.2715 56.1159 15.6881L39.8701 9.03821C38.2951 8.39655 36.6617 8.07566 34.9992 8.07566Z" fill="#292D32"/>
<path d="M34.9993 38.7005C30.566 38.7005 26.9785 35.113 26.9785 30.6796C26.9785 26.2463 30.566 22.6588 34.9993 22.6588C39.4327 22.6588 43.0202 26.2463 43.0202 30.6796C43.0202 35.113 39.4327 38.7005 34.9993 38.7005ZM34.9993 27.0338C32.9868 27.0338 31.3535 28.6671 31.3535 30.6796C31.3535 32.6921 32.9868 34.3255 34.9993 34.3255C37.0118 34.3255 38.6452 32.6921 38.6452 30.6796C38.6452 28.6671 37.0118 27.0338 34.9993 27.0338Z" fill="#292D32"/>
<path d="M35 47.4506C33.8042 47.4506 32.8125 46.4589 32.8125 45.2631V36.5131C32.8125 35.3172 33.8042 34.3256 35 34.3256C36.1958 34.3256 37.1875 35.3172 37.1875 36.5131V45.2631C37.1875 46.4589 36.1958 47.4506 35 47.4506Z" fill="#292D32"/>
</svg>
