<svg width="70" height="71" viewBox="0 0 70 71" fill="none" xmlns="http://www.w3.org/2000/svg">
<path d="M54.9785 37.2422H47.1035C39.3452 37.2422 35.7285 33.6256 35.7285 25.8672V15.0756C35.7285 7.31723 39.3452 3.70056 47.1035 3.70056H54.9785C62.7369 3.70056 66.3535 7.31723 66.3535 15.0756V25.8672C66.3535 33.6256 62.7369 37.2422 54.9785 37.2422ZM47.1035 8.07556C41.7368 8.07556 40.1035 9.7089 40.1035 15.0756V25.8672C40.1035 31.2339 41.7368 32.8672 47.1035 32.8672H54.9785C60.3452 32.8672 61.9785 31.2339 61.9785 25.8672V15.0756C61.9785 9.7089 60.3452 8.07556 54.9785 8.07556H47.1035Z" fill="#333333"/>
<path d="M22.8965 66.4089H15.0215C7.26315 66.4089 3.64648 62.7922 3.64648 55.0339V44.2422C3.64648 36.4839 7.26315 32.8672 15.0215 32.8672H22.8965C30.6548 32.8672 34.2715 36.4839 34.2715 44.2422V55.0339C34.2715 62.7922 30.6548 66.4089 22.8965 66.4089ZM15.0215 37.2422C9.65482 37.2422 8.02148 38.8755 8.02148 44.2422V55.0339C8.02148 60.4005 9.65482 62.0339 15.0215 62.0339H22.8965C28.2632 62.0339 29.8965 60.4005 29.8965 55.0339V44.2422C29.8965 38.8755 28.2632 37.2422 22.8965 37.2422H15.0215Z" fill="#333333"/>
<path d="M43.7509 66.4089C42.9634 66.4089 42.2342 65.9714 41.8551 65.3005C41.4759 64.6297 41.4759 63.7839 41.8842 63.113L44.9467 58.0089C45.5592 56.9589 46.9009 56.638 47.9509 57.2505C49.0009 57.863 49.3217 59.2047 48.7092 60.2547L47.9217 61.5672C55.9717 59.6714 62.0092 52.438 62.0092 43.8047C62.0092 42.6089 63.0009 41.6172 64.1967 41.6172C65.3925 41.6172 66.3842 42.6089 66.3842 43.8047C66.355 56.2589 56.205 66.4089 43.7509 66.4089Z" fill="#333333"/>
<path d="M5.83398 28.4922C4.63815 28.4922 3.64648 27.5006 3.64648 26.3047C3.64648 13.8506 13.7965 3.70056 26.2507 3.70056C27.0382 3.70056 27.7673 4.13806 28.1465 4.80889C28.5257 5.47973 28.5257 6.32556 28.1173 6.9964L25.0548 12.1297C24.4423 13.1506 23.1007 13.5006 22.0507 12.8589C21.0298 12.2464 20.6798 10.9047 21.3215 9.85473L22.109 8.54223C14.0298 10.4381 8.02148 17.6714 8.02148 26.3047C8.02148 27.5006 7.02982 28.4922 5.83398 28.4922Z" fill="#333333"/>
</svg>
