<svg width="24" height="24" viewBox="0 0 24 24" fill="none" xmlns="http://www.w3.org/2000/svg">
<path d="M17.5652 22.3021H6.46769C3.84186 22.3021 1.71436 20.1651 1.71436 17.5392V10.438C1.71436 9.13464 2.51936 7.49589 3.55436 6.69089L8.71977 2.66589C10.2723 1.45839 12.7544 1.40089 14.3644 2.53172L20.2869 6.68131C21.4273 7.47672 22.3185 9.18256 22.3185 10.5721V17.5488C22.3185 20.1651 20.191 22.3021 17.5652 22.3021ZM9.60144 3.79672L4.43602 7.82172C3.75561 8.35839 3.15186 9.57547 3.15186 10.438V17.5392C3.15186 19.3696 4.63727 20.8646 6.46769 20.8646H17.5652C19.3956 20.8646 20.881 19.3792 20.881 17.5488V10.5721C20.881 9.65214 20.2198 8.37756 19.4627 7.86006L13.5402 3.71047C12.4477 2.94381 10.646 2.98214 9.60144 3.79672Z" fill="#0715C9"/>
<path d="M12.0166 18.4688C11.6237 18.4688 11.2979 18.1429 11.2979 17.75V14.875C11.2979 14.4821 11.6237 14.1562 12.0166 14.1562C12.4095 14.1562 12.7354 14.4821 12.7354 14.875V17.75C12.7354 18.1429 12.4095 18.4688 12.0166 18.4688Z" fill="#0715C9"/>
</svg>
