<svg width="24" height="24" viewBox="0 0 24 24" fill="none" xmlns="http://www.w3.org/2000/svg">
<rect width="24" height="24" fill="white" fill-opacity="0.01"/>
<path d="M12 1.5C17.53 1.5 22 5.98 22 11.5C22 17.03 17.53 21.5 12 21.5C6.48 21.5 2 17.03 2 11.5C2 5.98 6.48 1.5 12 1.5ZM11.65 6.43C11.24 6.43 10.9 6.76 10.9 7.18V12.23C10.9 12.49 11.04 12.73 11.27 12.87L15.19 15.21C15.31 15.28 15.44 15.32 15.58 15.32C15.83 15.32 16.08 15.19 16.22 14.95C16.43 14.6 16.32 14.14 15.96 13.92L12.4 11.8V7.18C12.4 6.76 12.06 6.43 11.65 6.43Z" fill="white"/>
</svg>
