<svg width="288" height="241" viewBox="0 0 288 241" fill="none" xmlns="http://www.w3.org/2000/svg">
<g clip-path="url(#clip0_2520_7416)">
<mask id="mask0_2520_7416" style="mask-type:luminance" maskUnits="userSpaceOnUse" x="-7" y="-29" width="301" height="301">
<path d="M293.89 -28.9453H-6.10986V271.055H293.89V-28.9453Z" fill="white"/>
</mask>
<g mask="url(#mask0_2520_7416)">
<path d="M143.89 240.055C167.624 240.055 190.825 233.017 210.559 219.831C230.292 206.645 245.673 187.904 254.756 165.977C263.838 144.05 266.215 119.922 261.584 96.6439C256.954 73.3662 245.525 51.9842 228.743 35.2019C211.961 18.4196 190.579 6.99073 167.301 2.36051C144.023 -2.26972 119.895 0.106682 97.9681 9.1892C76.041 18.2717 57.2996 33.6524 44.1138 53.3863C30.928 73.1202 23.8901 96.321 23.8901 120.055C23.8901 151.881 36.533 182.403 59.0373 204.908C81.5417 227.412 112.064 240.055 143.89 240.055Z" fill="url(#paint0_linear_2520_7416)"/>
<path d="M191.43 34.6147H98.8901C90.0536 34.6147 82.8901 41.7782 82.8901 50.6147V173.645C82.8901 182.481 90.0536 189.645 98.8901 189.645H191.43C200.267 189.645 207.43 182.481 207.43 173.645V50.6147C207.43 41.7782 200.267 34.6147 191.43 34.6147Z" fill="white"/>
<path d="M138.99 54.6147H98.7901C96.0839 54.6147 93.8901 56.8085 93.8901 59.5147C93.8901 62.2209 96.0839 64.4147 98.7901 64.4147H138.99C141.696 64.4147 143.89 62.2209 143.89 59.5147C143.89 56.8085 141.696 54.6147 138.99 54.6147Z" fill="#011625"/>
<path d="M188.99 82.4146H98.7901C96.0839 82.4146 93.8901 84.6084 93.8901 87.3146C93.8901 90.0207 96.0839 92.2146 98.7901 92.2146H188.99C191.696 92.2146 193.89 90.0207 193.89 87.3146C193.89 84.6084 191.696 82.4146 188.99 82.4146Z" fill="#D5D5D5"/>
<path d="M188.99 110.215H98.7901C96.0839 110.215 93.8901 112.409 93.8901 115.115C93.8901 117.821 96.0839 120.015 98.7901 120.015H188.99C191.696 120.015 193.89 117.821 193.89 115.115C193.89 112.409 191.696 110.215 188.99 110.215Z" fill="#D5D5D5"/>
<path d="M188.99 138.015H98.7901C96.0839 138.015 93.8901 140.208 93.8901 142.915C93.8901 145.621 96.0839 147.815 98.7901 147.815H188.99C191.696 147.815 193.89 145.621 193.89 142.915C193.89 140.208 191.696 138.015 188.99 138.015Z" fill="#D5D5D5"/>
<path d="M98.7901 165.815H188.99C190.29 165.815 191.536 166.331 192.455 167.25C193.374 168.169 193.89 169.415 193.89 170.715C193.89 172.014 193.374 173.261 192.455 174.18C191.536 175.099 190.29 175.615 188.99 175.615H98.7901C97.4906 175.615 96.2442 175.099 95.3253 174.18C94.4064 173.261 93.8901 172.014 93.8901 170.715C93.8901 169.415 94.4064 168.169 95.3253 167.25C96.2442 166.331 97.4906 165.815 98.7901 165.815Z" fill="#D5D5D5"/>
<path d="M282.04 17.4746H221.96C220.58 17.5113 219.271 18.0943 218.32 19.0955C217.369 20.0968 216.855 21.4344 216.89 22.8146V52.5346C216.858 53.9131 217.373 55.2482 218.324 56.2473C219.274 57.2463 220.582 57.8279 221.96 57.8646H282.04C283.418 57.8279 284.726 57.2463 285.676 56.2473C286.627 55.2482 287.142 53.9131 287.11 52.5346V22.8146C287.145 21.4344 286.631 20.0968 285.68 19.0955C284.729 18.0943 283.42 17.5113 282.04 17.4746Z" fill="white"/>
<path d="M231.89 44.0547C233.077 44.0547 234.237 43.7028 235.224 43.0435C236.21 42.3842 236.979 41.4471 237.433 40.3508C237.888 39.2544 238.006 38.048 237.775 36.8841C237.543 35.7203 236.972 34.6512 236.133 33.812C235.294 32.9729 234.225 32.4015 233.061 32.17C231.897 31.9385 230.69 32.0573 229.594 32.5114C228.498 32.9655 227.561 33.7346 226.901 34.7213C226.242 35.708 225.89 36.868 225.89 38.0547C225.89 39.646 226.522 41.1721 227.647 42.2973C228.773 43.4225 230.299 44.0547 231.89 44.0547Z" fill="#CCC6D9"/>
<path d="M251.89 32.0547H271.89C273.481 32.0547 275.008 32.6868 276.133 33.812C277.258 34.9373 277.89 36.4634 277.89 38.0547C277.89 39.646 277.258 41.1721 276.133 42.2973C275.008 43.4226 273.481 44.0547 271.89 44.0547H251.89C250.299 44.0547 248.773 43.4226 247.647 42.2973C246.522 41.1721 245.89 39.646 245.89 38.0547C245.89 36.4634 246.522 34.9373 247.647 33.812C248.773 32.6868 250.299 32.0547 251.89 32.0547Z" fill="#D5D5D5"/>
<path fill-rule="evenodd" clip-rule="evenodd" d="M179 196.615C191.39 196.64 203.505 192.963 213.79 186.055L254.49 224.905L269.25 207.775L229.98 170.295C238.089 158.87 242.125 145.052 241.44 131.058C240.755 117.065 235.389 103.707 226.202 93.1287C217.016 82.5503 204.543 75.3645 190.784 72.7244C177.025 70.0844 162.777 72.1431 150.328 78.5702C137.879 84.9973 127.95 95.4202 122.135 108.166C116.319 120.912 114.954 135.243 118.258 148.858C121.562 162.473 129.345 174.583 140.356 183.245C151.368 191.907 164.97 196.619 178.98 196.625L179 196.615ZM232.31 134.115C232.312 144.582 229.21 154.815 223.396 163.519C217.581 172.223 209.316 179.008 199.646 183.014C189.976 187.021 179.335 188.07 169.068 186.028C158.802 183.987 149.371 178.946 141.97 171.545C134.568 164.143 129.528 154.713 127.486 144.446C125.445 134.18 126.494 123.539 130.5 113.868C134.507 104.198 141.291 95.9332 149.995 90.119C158.7 84.3049 168.933 81.2026 179.4 81.2046C193.433 81.2046 206.89 86.779 216.813 96.7015C226.736 106.624 232.31 120.082 232.31 134.115Z" fill="#CCC6D9"/>
<path d="M179.39 188.055C209.49 188.055 233.89 163.875 233.89 134.055C233.89 104.235 209.49 80.0547 179.39 80.0547C149.29 80.0547 124.89 104.235 124.89 134.055C124.89 163.875 149.29 188.055 179.39 188.055Z" fill="white" fill-opacity="0.3"/>
<path d="M188.81 134.055L202 120.915C202.92 119.945 203.536 118.728 203.773 117.413C204.01 116.098 203.859 114.742 203.336 113.512C202.813 112.282 201.943 111.231 200.832 110.489C199.72 109.747 198.416 109.346 197.08 109.335C195.282 109.304 193.542 109.975 192.23 111.205L179.01 124.345L165.82 111.205C165.188 110.534 164.426 110 163.58 109.635C162.732 109.262 161.817 109.065 160.89 109.055C159.965 109.036 159.046 109.204 158.187 109.547C157.328 109.891 156.547 110.404 155.89 111.055C155.236 111.703 154.722 112.479 154.38 113.335C154.031 114.183 153.858 115.094 153.87 116.012C153.882 116.929 154.079 117.835 154.45 118.675C154.825 119.514 155.362 120.272 156.03 120.905L169.27 134.055L156.05 147.195C155.382 147.827 154.845 148.585 154.47 149.425C154.099 150.264 153.902 151.17 153.89 152.087C153.878 153.005 154.051 153.916 154.4 154.765C154.735 155.622 155.242 156.401 155.89 157.055C156.547 157.706 157.328 158.218 158.187 158.562C159.046 158.905 159.965 159.073 160.89 159.055C161.813 159.043 162.725 158.846 163.57 158.475C164.416 158.109 165.178 157.575 165.81 156.905L179.03 143.765L192.25 156.905C193.572 158.062 195.285 158.674 197.041 158.616C198.797 158.559 200.466 157.836 201.71 156.595C202.954 155.363 203.677 153.7 203.729 151.951C203.781 150.201 203.159 148.498 201.99 147.195L188.81 134.055Z" fill="#0715C9"/>
<path d="M254.49 224.895L269.25 207.775L271.47 209.895C273.634 212.016 274.915 214.878 275.056 217.906C275.197 220.933 274.187 223.901 272.23 226.215C271.285 227.326 270.124 228.235 268.818 228.884C267.511 229.534 266.087 229.912 264.63 229.995C263.177 230.062 261.725 229.83 260.364 229.314C259.004 228.798 257.764 228.009 256.72 226.995L254.5 224.875L254.49 224.895Z" fill="#E1DCEB"/>
<path fill-rule="evenodd" clip-rule="evenodd" d="M50.2001 62.2247C50.1877 60.7714 50.0031 59.3246 49.6501 57.9147C48.3901 52.8347 42.8001 49.5647 36.8401 48.8047C30.8801 48.0447 24.6901 49.8047 22.3001 54.2047C21.6977 55.1697 21.2984 56.2473 21.1265 57.3717C20.9545 58.4962 21.0136 59.6439 21.3001 60.7447C21.9476 62.6366 23.2443 64.2379 24.9601 65.2647C29.9601 68.5547 38.6801 69.2647 42.6701 67.8447C44.5189 67.206 46.3229 66.4443 48.0701 65.5647C47.0701 71.3147 43.3301 76.7547 38.3401 81.6647C27.5101 92.3247 10.6901 100.415 1.53008 103.395C1.29509 103.483 1.1019 103.656 0.988891 103.881C0.875882 104.105 0.85132 104.363 0.920081 104.605C0.952254 104.725 1.00842 104.838 1.08521 104.937C1.16201 105.035 1.25786 105.118 1.36706 105.178C1.47625 105.239 1.59656 105.277 1.72078 105.29C1.845 105.303 1.9706 105.291 2.09008 105.255C11.4301 102.255 28.5701 93.9547 39.6201 83.0847C45.3301 77.4647 49.4001 71.1447 50.0901 64.4947C63.0001 57.2947 73.5901 44.2347 82.6501 33.2347C82.8128 33.038 82.8941 32.7865 82.8773 32.5318C82.8606 32.2771 82.7471 32.0385 82.5601 31.8647C82.4684 31.7812 82.3607 31.7174 82.2435 31.677C82.1263 31.6367 82.0021 31.6207 81.8785 31.63C81.7549 31.6394 81.6345 31.6739 81.5247 31.7315C81.415 31.789 81.3181 31.8684 81.2401 31.9647C72.5601 42.5147 62.4701 55.0547 50.2001 62.2247ZM48.3301 63.2747C48.4035 61.6329 48.2384 59.9892 47.8401 58.3947C46.7601 54.0047 41.7701 51.3947 36.6101 50.7347C33.5643 50.267 30.4484 50.6548 27.6101 51.8547C26.0437 52.52 24.7374 53.6788 23.8901 55.1547C23.4185 55.8877 23.1009 56.7089 22.9565 57.5684C22.8121 58.428 22.8439 59.3079 23.0501 60.1547C23.5694 61.6101 24.5858 62.8354 25.9201 63.6147C30.4701 66.6147 38.4201 67.2547 42.0501 65.9947C44.2124 65.2564 46.3123 64.3468 48.3301 63.2747Z" fill="#011625"/>
<path d="M278.89 161.055C282.204 161.055 284.89 158.368 284.89 155.055C284.89 151.741 282.204 149.055 278.89 149.055C275.576 149.055 272.89 151.741 272.89 155.055C272.89 158.368 275.576 161.055 278.89 161.055Z" fill="#417BA4"/>
<path fill-rule="evenodd" clip-rule="evenodd" d="M52.2701 196.445C53.388 196.069 54.4283 195.493 55.3401 194.745C56.2618 193.843 56.8684 192.668 57.0701 191.395C57.4401 189.795 57.5801 188.095 58.0201 186.495C58.101 186.123 58.3187 185.794 58.6301 185.575C58.9147 185.355 59.2721 185.252 59.6301 185.285C59.8974 185.299 60.1557 185.386 60.3776 185.536C60.5995 185.686 60.7766 185.893 60.8901 186.135C60.9554 186.279 61.0056 186.43 61.0401 186.585C61.0401 186.735 61.0401 187.195 61.1301 187.385C61.2101 187.855 61.2801 188.325 61.3501 188.795C61.4443 190.286 61.7821 191.753 62.3501 193.135C63.2801 195.135 64.2201 196.285 65.4801 196.825C66.9653 197.285 68.555 197.285 70.0401 196.825L70.5701 196.705C70.9759 196.642 71.3901 196.742 71.722 196.984C72.0538 197.226 72.2762 197.589 72.3401 197.995C72.4225 198.401 72.3461 198.823 72.1266 199.175C71.9072 199.527 71.5613 199.781 71.1601 199.885L70.6601 199.995C68.1301 200.655 65.2101 202.995 63.5101 205.055C62.9801 205.695 62.2201 207.465 61.4401 208.595C61.0152 209.285 60.396 209.835 59.6601 210.175C59.3614 210.273 59.0389 210.273 58.7401 210.175C58.366 210.086 58.0402 209.857 57.8301 209.535C57.6748 209.313 57.569 209.061 57.5201 208.795C57.5201 208.645 57.5201 208.265 57.5201 208.085C57.3601 207.515 57.1701 206.945 57.0301 206.365C56.6594 205.115 56.048 203.95 55.2301 202.935C54.5754 201.919 53.6414 201.113 52.5401 200.615C51.9279 200.47 51.3237 200.293 50.7301 200.085C50.2947 199.897 49.9403 199.56 49.7301 199.135C49.5797 198.807 49.521 198.444 49.5601 198.085C49.6126 197.657 49.8187 197.262 50.1401 196.975C50.3986 196.746 50.7122 196.587 51.0501 196.515C51.3201 196.495 52.1601 196.455 52.2701 196.445ZM59.4401 194.185L59.6201 194.585C60.9901 197.455 62.5101 199.055 64.3601 199.825H64.4301C63.2488 200.736 62.1692 201.772 61.2101 202.915C60.712 203.621 60.2675 204.363 59.8801 205.135C59.3931 203.672 58.6666 202.3 57.7301 201.075C57.0909 200.095 56.2734 199.243 55.3201 198.565C56.0364 198.181 56.7073 197.718 57.3201 197.185C58.2464 196.36 58.9716 195.334 59.4401 194.185Z" fill="#417BA4"/>
</g>
</g>
<defs>
<linearGradient id="paint0_linear_2520_7416" x1="142.96" y1="-39.0153" x2="145.42" y2="382.405" gradientUnits="userSpaceOnUse">
<stop stop-color="#F2F2F2"/>
<stop offset="1" stop-color="#EFEFEF"/>
</linearGradient>
<clipPath id="clip0_2520_7416">
<rect width="286.22" height="240" fill="white" transform="translate(0.890137 0.0546875)"/>
</clipPath>
</defs>
</svg>
