<svg width="34" height="34" viewBox="0 0 34 34" fill="none" xmlns="http://www.w3.org/2000/svg">
<path d="M17.1332 29.0369C13.8527 29.0369 10.5723 28.5159 7.46079 27.4741C6.27814 27.0658 5.37707 26.2351 4.98285 25.151C4.57456 24.0669 4.71535 22.8702 5.36299 21.8002L6.98209 19.111C7.31999 18.5479 7.62974 17.4215 7.62974 16.7598V12.6909C7.62974 7.45349 11.8957 3.1875 17.1332 3.1875C22.3706 3.1875 26.6366 7.45349 26.6366 12.6909V16.7598C26.6366 17.4075 26.9464 18.5479 27.2843 19.1251L28.8893 21.8002C29.4947 22.8139 29.6073 24.0387 29.199 25.151C28.7907 26.2633 27.9037 27.108 26.7915 27.4741C23.6941 28.5159 20.4136 29.0369 17.1332 29.0369ZM17.1332 5.29937C13.0643 5.29937 9.74161 8.60798 9.74161 12.6909V16.7598C9.74161 17.7876 9.31923 19.3081 8.79831 20.1951L7.1792 22.8843C6.86946 23.4052 6.78499 23.9543 6.96801 24.4189C7.13696 24.8976 7.55934 25.2636 8.13659 25.4607C14.0217 27.4318 20.2587 27.4318 26.1438 25.4607C26.6507 25.2918 27.0449 24.9117 27.2279 24.4048C27.411 23.898 27.3687 23.3489 27.0871 22.8843L25.468 20.1951C24.933 19.28 24.5247 17.7735 24.5247 16.7457V12.6909C24.5247 8.60798 21.2161 5.29937 17.1332 5.29937Z" fill="#455358"/>
<path d="M19.752 5.67955C19.6534 5.67955 19.5549 5.66547 19.4563 5.63731C19.048 5.52468 18.6538 5.44021 18.2737 5.38389C17.077 5.22902 15.9225 5.31349 14.8384 5.63731C14.4442 5.76403 14.0218 5.63731 13.7543 5.34165C13.4868 5.04599 13.4023 4.62361 13.5572 4.24348C14.1344 2.76516 15.5423 1.7937 17.1474 1.7937C18.7524 1.7937 20.1603 2.75108 20.7375 4.24348C20.8783 4.62361 20.8079 5.04599 20.5404 5.34165C20.3292 5.56692 20.0336 5.67955 19.752 5.67955Z" fill="#455358"/>
<path d="M17.1332 32.247C15.7394 32.247 14.3878 31.6838 13.4022 30.6983C12.4167 29.7127 11.8535 28.3611 11.8535 26.9673H13.9654C13.9654 27.798 14.3033 28.6145 14.8946 29.2059C15.4859 29.7972 16.3025 30.1351 17.1332 30.1351C18.879 30.1351 20.301 28.7131 20.301 26.9673H22.4129C22.4129 29.8817 20.0476 32.247 17.1332 32.247Z" fill="#455358"/>
</svg>
