<svg width="35" height="35" viewBox="0 0 35 35" fill="none" xmlns="http://www.w3.org/2000/svg">
<path d="M17.4906 19.3775C17.4625 19.3775 17.4202 19.3775 17.3921 19.3775C17.3499 19.3775 17.2935 19.3775 17.2513 19.3775C14.0558 19.2789 11.6626 16.7872 11.6626 13.7184C11.6626 10.5932 14.2106 8.04517 17.3358 8.04517C20.461 8.04517 23.009 10.5932 23.009 13.7184C22.9949 16.8013 20.5877 19.2789 17.5329 19.3775C17.5047 19.3775 17.5047 19.3775 17.4906 19.3775ZM17.3217 10.1427C15.3509 10.1427 13.7601 11.7475 13.7601 13.7043C13.7601 15.6329 15.2664 17.1955 17.1809 17.2659C17.2232 17.2518 17.3639 17.2518 17.5047 17.2659C19.3911 17.1673 20.8692 15.6188 20.8833 13.7043C20.8833 11.7475 19.2925 10.1427 17.3217 10.1427Z" fill="#292D32"/>
<path d="M17.3216 32.3569C13.5348 32.3569 9.91692 30.9492 7.11552 28.3871C6.86212 28.1618 6.74951 27.824 6.77766 27.5002C6.96067 25.825 8.00239 24.2624 9.73391 23.1081C13.929 20.3207 20.7283 20.3207 24.9093 23.1081C26.6408 24.2765 27.6826 25.825 27.8656 27.5002C27.9078 27.8381 27.7811 28.1618 27.5277 28.3871C24.7263 30.9492 21.1084 32.3569 17.3216 32.3569ZM8.98781 27.2187C11.3247 29.1754 14.2668 30.2453 17.3216 30.2453C20.3764 30.2453 23.3186 29.1754 25.6554 27.2187C25.402 26.3599 24.7263 25.5294 23.7268 24.8537C20.2638 22.545 14.3935 22.545 10.9023 24.8537C9.90284 25.5294 9.2412 26.3599 8.98781 27.2187Z" fill="#292D32"/>
<path d="M17.3217 32.3569C8.97377 32.3569 2.18848 25.5716 2.18848 17.2238C2.18848 8.87587 8.97377 2.09058 17.3217 2.09058C25.6695 2.09058 32.4548 8.87587 32.4548 17.2238C32.4548 25.5716 25.6695 32.3569 17.3217 32.3569ZM17.3217 4.20218C10.1422 4.20218 4.30008 10.0443 4.30008 17.2238C4.30008 24.4032 10.1422 30.2453 17.3217 30.2453C24.5011 30.2453 30.3432 24.4032 30.3432 17.2238C30.3432 10.0443 24.5011 4.20218 17.3217 4.20218Z" fill="#292D32"/>
</svg>
