<svg width="54" height="54" viewBox="0 0 54 54" fill="none" xmlns="http://www.w3.org/2000/svg">
<path d="M25.7198 41.5651H19.6911C16.8566 41.5651 14.9901 40.9052 13.8201 39.7352C12.6501 38.5652 11.9902 36.6988 11.9902 33.8642V27.8355C11.9902 25.0129 12.6497 23.152 13.8194 21.9845C14.9896 20.8166 16.8566 20.1567 19.6911 20.1567H25.7198C28.5423 20.1567 30.4098 20.8162 31.5832 21.9873C32.7562 23.158 33.4206 25.025 33.4206 27.8576V33.8846C33.4098 36.7066 32.7458 38.5687 31.5749 39.7373C30.4041 40.9058 28.542 41.5651 25.7198 41.5651ZM19.6911 21.4692C17.5911 21.4692 15.876 21.7729 14.7412 22.9077C13.6064 24.0425 13.3027 25.7576 13.3027 27.8576V33.8863C13.3027 35.9863 13.6064 37.7014 14.7412 38.8362C15.876 39.971 17.5911 40.2747 19.6911 40.2747H25.7198C27.8197 40.2747 29.5349 39.971 30.6697 38.8362C31.8045 37.7014 32.1082 35.9863 32.1082 33.8863V27.8576C32.1082 25.7576 31.8045 24.0425 30.6697 22.9077C29.5349 21.7729 27.8197 21.4692 25.7198 21.4692H19.6911Z" fill="#0715C9" stroke="#0715C9" stroke-width="2"/>
<path d="M34.3091 33.9526H32.7411C31.8357 33.9526 31.0849 33.2018 31.0849 32.2964V27.8356C31.0849 23.706 29.8261 22.4472 25.6966 22.4472H21.2578C20.3524 22.4472 19.6016 21.6964 19.6016 20.791V19.2451C19.6016 13.3268 22.362 10.5443 28.3024 10.5443H34.3311C40.2495 10.5443 43.032 13.3047 43.032 19.2451V25.2739C43.0099 31.1922 40.2495 33.9526 34.3091 33.9526ZM22.9141 19.1568H25.7186C31.637 19.1568 34.4195 21.9172 34.4195 27.8576V30.6622C38.4828 30.6401 39.7195 29.3814 39.7195 25.2739V19.2451C39.7195 15.1156 38.4607 13.8568 34.3311 13.8568H28.3024C24.1949 13.8568 22.9361 15.0935 22.9141 19.1568Z" fill="#0715C9"/>
<path d="M33.6246 50.2943C33.0284 50.2943 32.4763 49.963 32.1892 49.4551C31.9021 48.9251 31.9021 48.3068 32.2113 47.7768L34.53 43.9122C34.9938 43.1172 36.0096 42.8743 36.8046 43.338C37.5996 43.8018 37.8425 44.8176 37.3788 45.6126L36.7825 46.6063C42.8775 45.1709 47.4488 39.6943 47.4488 33.1576C47.4488 32.2522 48.1996 31.5013 49.105 31.5013C50.0104 31.5013 50.7613 32.2522 50.7613 33.1576C50.7392 42.6093 43.0542 50.2943 33.6246 50.2943Z" fill="#0715C9"/>
<path d="M4.91602 21.5859C4.0106 21.5859 3.25977 20.8351 3.25977 19.9296C3.25977 10.5001 10.9448 2.81506 20.3743 2.81506C20.9706 2.81506 21.5227 3.14631 21.8098 3.65423C22.0968 4.18423 22.0968 4.80256 21.7877 5.33256L19.4689 9.19715C19.0052 9.97006 17.9893 10.2351 17.1943 9.74923C16.4214 9.28548 16.1564 8.26965 16.6423 7.47465L17.2385 6.4809C11.1214 7.91631 6.57227 13.393 6.57227 19.9296C6.57227 20.8351 5.82143 21.5859 4.91602 21.5859Z" fill="#0715C9"/>
</svg>
