<svg width="24" height="24" viewBox="0 0 24 24" fill="none" xmlns="http://www.w3.org/2000/svg">
<path d="M12.0166 15.5938C10.0329 15.5938 8.42285 13.9837 8.42285 12C8.42285 10.0163 10.0329 8.40625 12.0166 8.40625C14.0004 8.40625 15.6104 10.0163 15.6104 12C15.6104 13.9837 14.0004 15.5938 12.0166 15.5938ZM12.0166 9.84375C10.8283 9.84375 9.86035 10.8117 9.86035 12C9.86035 13.1883 10.8283 14.1562 12.0166 14.1562C13.2049 14.1562 14.1729 13.1883 14.1729 12C14.1729 10.8117 13.2049 9.84375 12.0166 9.84375Z" fill="#0715C9"/>
<path d="M15.0927 21.7654C14.8914 21.7654 14.6902 21.7367 14.4889 21.6887C13.8948 21.5258 13.3964 21.1521 13.0802 20.625L12.9652 20.4333C12.3998 19.4558 11.6235 19.4558 11.0581 20.4333L10.9527 20.6154C10.6364 21.1521 10.1381 21.5354 9.54394 21.6887C8.94019 21.8517 8.31727 21.7654 7.79019 21.4492L6.14186 20.5004C5.55727 20.165 5.13561 19.6187 4.95352 18.9575C4.78102 18.2962 4.86727 17.6158 5.20269 17.0312C5.48061 16.5425 5.55727 16.1017 5.39436 15.8237C5.23144 15.5458 4.81936 15.3829 4.25394 15.3829C2.85477 15.3829 1.71436 14.2425 1.71436 12.8433V11.1567C1.71436 9.75749 2.85477 8.61707 4.25394 8.61707C4.81936 8.61707 5.23144 8.45416 5.39436 8.17624C5.55727 7.89832 5.49019 7.45749 5.20269 6.96874C4.86727 6.38416 4.78102 5.69416 4.95352 5.04249C5.12602 4.38124 5.54769 3.83499 6.14186 3.49957L7.79977 2.55082C8.88269 1.90874 10.3106 2.28249 10.9623 3.38457L11.0773 3.57624C11.6427 4.55374 12.4189 4.55374 12.9844 3.57624L13.0898 3.39416C13.7414 2.28249 15.1694 1.90874 16.2619 2.56041L17.9102 3.50916C18.4948 3.84457 18.9164 4.39082 19.0985 5.05207C19.271 5.71332 19.1848 6.39374 18.8494 6.97832C18.5714 7.46707 18.4948 7.90791 18.6577 8.18582C18.8206 8.46374 19.2327 8.62666 19.7981 8.62666C21.1973 8.62666 22.3377 9.76707 22.3377 11.1662V12.8529C22.3377 14.2521 21.1973 15.3925 19.7981 15.3925C19.2327 15.3925 18.8206 15.5554 18.6577 15.8333C18.4948 16.1112 18.5619 16.5521 18.8494 17.0408C19.1848 17.6254 19.2806 18.3154 19.0985 18.9671C18.926 19.6283 18.5044 20.1746 17.9102 20.51L16.2523 21.4587C15.8881 21.66 15.4952 21.7654 15.0927 21.7654ZM12.0164 18.2196C12.8694 18.2196 13.6648 18.7562 14.211 19.705L14.3164 19.8871C14.4314 20.0883 14.6231 20.2321 14.8531 20.2896C15.0831 20.3471 15.3131 20.3183 15.5048 20.2033L17.1627 19.245C17.4119 19.1012 17.6035 18.8617 17.6802 18.5742C17.7569 18.2867 17.7185 17.9896 17.5748 17.7404C17.0285 16.8012 16.9614 15.8333 17.3831 15.0954C17.8048 14.3575 18.6769 13.9358 19.7694 13.9358C20.3827 13.9358 20.8714 13.4471 20.8714 12.8337V11.1471C20.8714 10.5433 20.3827 10.045 19.7694 10.045C18.6769 10.045 17.8048 9.62332 17.3831 8.88541C16.9614 8.14749 17.0285 7.17957 17.5748 6.24041C17.7185 5.99124 17.7569 5.69416 17.6802 5.40666C17.6035 5.11916 17.4214 4.88916 17.1723 4.73582L15.5144 3.78707C15.1023 3.53791 14.556 3.68166 14.3069 4.10332L14.2014 4.28541C13.6552 5.23416 12.8598 5.77082 12.0069 5.77082C11.1539 5.77082 10.3585 5.23416 9.81227 4.28541L9.70686 4.09374C9.46727 3.69124 8.93061 3.54749 8.51852 3.78707L6.86061 4.74541C6.61144 4.88916 6.41977 5.12874 6.34311 5.41624C6.26644 5.70374 6.30477 6.00082 6.44852 6.24999C6.99477 7.18916 7.06186 8.15707 6.64019 8.89499C6.21852 9.63291 5.34644 10.0546 4.25394 10.0546C3.64061 10.0546 3.15186 10.5433 3.15186 11.1567V12.8433C3.15186 13.4471 3.64061 13.9454 4.25394 13.9454C5.34644 13.9454 6.21852 14.3671 6.64019 15.105C7.06186 15.8429 6.99477 16.8108 6.44852 17.75C6.30477 17.9992 6.26644 18.2962 6.34311 18.5837C6.41977 18.8712 6.60186 19.1012 6.85102 19.2546L8.50894 20.2033C8.71019 20.3279 8.94977 20.3567 9.17019 20.2992C9.40019 20.2417 9.59186 20.0883 9.71644 19.8871L9.82186 19.705C10.3681 18.7658 11.1635 18.2196 12.0164 18.2196Z" fill="#0715C9"/>
</svg>
