<svg width="24" height="24" viewBox="0 0 24 24" fill="none" xmlns="http://www.w3.org/2000/svg">
<path d="M9.60159 20.328C9.12242 20.328 8.78701 20.165 8.58576 20.0117C8.20242 19.7338 7.60825 19.015 7.982 17.405L8.52823 15.0475C8.57615 14.8463 8.47074 14.4821 8.32699 14.3288L6.41991 12.4217C5.41366 11.4155 5.49991 10.5434 5.63407 10.1121C5.76824 9.68087 6.20907 8.92378 7.60824 8.6842L10.052 8.2817C10.2341 8.25295 10.5312 8.03254 10.6078 7.86962L11.9591 5.16712C12.6107 3.86378 13.4732 3.67212 13.9332 3.67212C14.3932 3.67212 15.2557 3.86378 15.9074 5.16712L17.2587 7.86962C17.3449 8.03254 17.6324 8.25295 17.8145 8.2817L20.2582 8.6842C21.6574 8.9142 22.0982 9.68087 22.2324 10.1121C22.3666 10.5434 22.4528 11.4155 21.4466 12.4217L19.5395 14.3288C19.3957 14.4725 19.2903 14.8463 19.3383 15.0475L19.8845 17.405C20.2582 19.0246 19.6641 19.7338 19.2807 20.0117C18.8974 20.2896 18.0445 20.6442 16.607 19.7913L14.3166 18.4305C14.1249 18.3155 13.7224 18.3155 13.5307 18.4305L11.2403 19.7913C10.5791 20.1938 10.0233 20.328 9.60159 20.328ZM13.9332 5.10962C13.7799 5.10962 13.502 5.2917 13.2432 5.8092L11.892 8.51171C11.6045 9.09629 10.9241 9.59463 10.282 9.70004L7.83826 10.1025C7.29201 10.1984 7.04284 10.3996 6.99492 10.553C6.947 10.7063 7.03323 11.013 7.42615 11.4059L9.33325 13.313C9.822 13.8017 10.0807 14.6929 9.92742 15.3638L9.38116 17.7213C9.21824 18.4017 9.32365 18.7659 9.42906 18.8521C9.53448 18.9288 9.91782 18.9192 10.512 18.555L12.812 17.1942C13.4541 16.8109 14.422 16.8109 15.0545 17.1942L17.3449 18.555C17.9487 18.9096 18.332 18.9288 18.4374 18.8521C18.5428 18.7754 18.6482 18.4113 18.4853 17.7213L17.9391 15.3638C17.7857 14.6834 18.0349 13.8017 18.5332 13.313L20.4403 11.4059C20.8333 11.013 20.9195 10.6967 20.8716 10.553C20.8236 10.4092 20.5745 10.1984 20.0282 10.1025L17.5845 9.70004C16.9424 9.59463 16.262 9.09629 15.9745 8.51171L14.6232 5.8092C14.3645 5.2917 14.0866 5.10962 13.9332 5.10962Z" fill="#0715C9"/>
<path d="M8.18311 6.01038H2.43311C2.04019 6.01038 1.71436 5.68454 1.71436 5.29163C1.71436 4.89871 2.04019 4.57288 2.43311 4.57288H8.18311C8.57602 4.57288 8.90186 4.89871 8.90186 5.29163C8.90186 5.68454 8.57602 6.01038 8.18311 6.01038Z" fill="#0715C9"/>
<path d="M5.30811 19.4271H2.43311C2.04019 19.4271 1.71436 19.1013 1.71436 18.7084C1.71436 18.3155 2.04019 17.9896 2.43311 17.9896H5.30811C5.70102 17.9896 6.02686 18.3155 6.02686 18.7084C6.02686 19.1013 5.70102 19.4271 5.30811 19.4271Z" fill="#0715C9"/>
<path d="M3.39144 12.7188H2.43311C2.04019 12.7188 1.71436 12.3929 1.71436 12C1.71436 11.6071 2.04019 11.2812 2.43311 11.2812H3.39144C3.78436 11.2812 4.11019 11.6071 4.11019 12C4.11019 12.3929 3.78436 12.7188 3.39144 12.7188Z" fill="#0715C9"/>
</svg>
