<svg width="24" height="24" viewBox="0 0 24 24" fill="none" xmlns="http://www.w3.org/2000/svg">
<path d="M17.1726 20.3854H10.9722C10.5793 20.3854 10.2534 20.0596 10.2534 19.6667C10.2534 19.2738 10.5793 18.9479 10.9722 18.9479H17.1726C20.1051 18.9479 20.7951 18.4688 20.8718 15.8621C19.6068 15.5363 18.6676 14.3863 18.6676 13.0254C18.6676 11.655 19.6068 10.4954 20.8813 10.1696V9.92042C20.8813 6.7675 20.3255 6.21167 17.1726 6.21167H11.7772V12C11.7772 12.3929 11.4513 12.7188 11.0584 12.7188C10.6655 12.7188 10.3397 12.3929 10.3397 12V5.49292C10.3397 5.1 10.6655 4.77417 11.0584 4.77417H17.1726C21.1209 4.77417 22.3188 5.97209 22.3188 9.92042V10.8021C22.3188 11.195 21.993 11.5208 21.6001 11.5208C20.7759 11.5208 20.1051 12.1917 20.1051 13.0254C20.1051 13.8496 20.7759 14.5204 21.6001 14.5204C21.993 14.5204 22.3188 14.8463 22.3188 15.2392C22.3188 19.1875 21.1209 20.3854 17.1726 20.3854Z" fill="#0715C9"/>
<path d="M11.0584 20.3854H8.40386C6.46803 20.3854 5.47136 18.9287 4.56094 16.7437L4.37886 16.3029C4.31178 16.1304 4.31178 15.9291 4.38844 15.7566C4.46511 15.5841 4.60886 15.4404 4.78136 15.3733C5.16469 15.22 5.46178 14.9229 5.62469 14.5491C5.78761 14.1658 5.78761 13.7441 5.62469 13.3608C5.30844 12.5558 4.39803 12.182 3.59303 12.4983C3.41094 12.575 3.21928 12.5654 3.03719 12.4887C2.86469 12.412 2.72094 12.2683 2.65386 12.0958L2.49094 11.6837C0.957609 7.9558 1.62844 6.35538 5.35636 4.81246L7.88636 3.77746C8.25053 3.62413 8.67219 3.80621 8.82553 4.17038L11.7293 11.2045C11.7676 11.2908 11.7868 11.3866 11.7868 11.4825V13.9166C11.7868 14.3095 11.4609 14.6354 11.068 14.6354C10.6751 14.6354 10.3493 14.3095 10.3493 13.9166V11.6166L7.76178 5.37788L5.90261 6.14455C2.95094 7.36163 2.59636 8.10913 3.75594 10.9841C5.08803 10.7925 6.42969 11.5112 6.95678 12.805C7.26344 13.5429 7.26344 14.3575 6.94719 15.0954C6.73636 15.6033 6.39136 16.0345 5.95053 16.3508C6.87053 18.5166 7.54136 18.9479 8.39428 18.9479H10.3301V16.7916C10.3301 16.3987 10.6559 16.0729 11.0489 16.0729C11.4418 16.0729 11.7676 16.3987 11.7676 16.7916V19.6666C11.7772 20.0595 11.4514 20.3854 11.0584 20.3854Z" fill="#0715C9"/>
<path d="M8.34602 20.3854H8.18311C7.79019 20.3854 7.46436 20.0595 7.46436 19.6666C7.46436 19.2737 7.79019 18.9479 8.18311 18.9479H8.34602C8.73894 18.9479 9.06477 19.2737 9.06477 19.6666C9.06477 20.0595 8.73894 20.3854 8.34602 20.3854Z" fill="#0715C9"/>
</svg>
