<svg width="54" height="54" viewBox="0 0 54 54" fill="none" xmlns="http://www.w3.org/2000/svg">
<path d="M26.9997 49.2943C15.9803 49.2943 7.02051 40.3345 7.02051 29.3151C7.02051 18.2957 15.9803 9.33594 26.9997 9.33594C38.0191 9.33594 46.9788 18.2957 46.9788 29.3151C46.9788 40.3345 38.0191 49.2943 26.9997 49.2943ZM26.9997 10.6484C16.7086 10.6484 8.33301 19.0241 8.33301 29.3151C8.33301 39.6061 16.7086 47.9818 26.9997 47.9818C37.2907 47.9818 45.6663 39.6061 45.6663 29.3151C45.6663 19.0241 37.2907 10.6484 26.9997 10.6484Z" fill="#0715C9" stroke="#0715C9" stroke-width="2"/>
<path d="M27 30.4192C26.0946 30.4192 25.3438 29.6684 25.3438 28.763V17.7213C25.3438 16.8159 26.0946 16.0651 27 16.0651C27.9054 16.0651 28.6562 16.8159 28.6562 17.7213V28.763C28.6562 29.6684 27.9054 30.4192 27 30.4192Z" fill="#0715C9"/>
<path d="M33.625 6.12756H20.375C19.4696 6.12756 18.7188 5.37673 18.7188 4.47131C18.7188 3.5659 19.4696 2.81506 20.375 2.81506H33.625C34.5304 2.81506 35.2812 3.5659 35.2812 4.47131C35.2812 5.37673 34.5304 6.12756 33.625 6.12756Z" fill="#0715C9"/>
</svg>
